<?xml version="1.0" encoding="UTF-8"?>
<!DOCTYPE svg PUBLIC "-//W3C//DTD SVG 1.1//EN" "http://www.w3.org/Graphics/SVG/1.1/DTD/svg11.dtd">
<svg xmlns="http://www.w3.org/2000/svg" version="1.1" width="512px" height="512px" style="shape-rendering:geometricPrecision; text-rendering:geometricPrecision; image-rendering:optimizeQuality; fill-rule:evenodd; clip-rule:evenodd" xmlns:xlink="http://www.w3.org/1999/xlink">
<g><path style="opacity:0.984" fill="#030201" d="M 511.5,173.5 C 511.5,183.833 511.5,194.167 511.5,204.5C 510.471,210.517 509.471,216.684 508.5,223C 508.528,224.07 508.861,224.903 509.5,225.5C 500.141,268.065 477.474,301.565 441.5,326C 474.935,338.61 492.935,362.776 495.5,398.5C 493.05,435.249 474.383,459.416 439.5,471C 402.493,478.406 373.993,466.239 354,434.5C 350.543,427.462 347.876,420.128 346,412.5C 298.07,448.91 244.236,462.41 184.5,453C 167.422,450.14 151.089,444.974 135.5,437.5C 108.156,465.722 76.4895,471.556 40.5,455C 9.38945,434.703 -2.44388,406.203 5,369.5C 11.1933,347.641 24.3599,331.475 44.5,321C 18.7467,296.574 3.74674,266.74 -0.5,231.5C -0.5,220.5 -0.5,209.5 -0.5,198.5C 9.52392,137.316 43.8573,96.4822 102.5,76C 148.151,63.4718 190.318,70.6385 229,97.5C 247.703,73.7446 271.203,56.7446 299.5,46.5C 298.4,47.5585 297.066,48.3918 295.5,49C 300.928,47.9705 306.261,46.3038 311.5,44C 319.766,42.0111 328.1,40.3444 336.5,39C 334.618,38.8019 332.952,38.3019 331.5,37.5C 402.075,31.0383 455.908,57.705 493,117.5C 502.509,135.192 508.675,153.858 511.5,173.5 Z"/></g>
<g><path style="opacity:0.818" fill="#c45727" d="M 331.5,37.5 C 332.952,38.3019 334.618,38.8019 336.5,39C 328.1,40.3444 319.766,42.0111 311.5,44C 306.261,46.3038 300.928,47.9705 295.5,49C 297.066,48.3918 298.4,47.5585 299.5,46.5C 309.393,41.0957 320.06,38.0957 331.5,37.5 Z"/></g>
<g><path style="opacity:1" fill="#773817" d="M 367.5,50.5 C 363.5,50.5 359.5,50.5 355.5,50.5C 355.5,51.8333 355.5,53.1667 355.5,54.5C 354.549,53.0813 354.216,51.4147 354.5,49.5C 359.032,49.1818 363.366,49.5151 367.5,50.5 Z"/></g>
<g><path style="opacity:1" fill="#d45e2a" d="M 333.5,50.5 C 336.833,50.5 340.167,50.5 343.5,50.5C 347.455,89.3502 338.288,124.684 316,156.5C 292.331,137.659 268.831,118.659 245.5,99.5C 269.332,73.2512 298.666,56.9179 333.5,50.5 Z"/></g>
<g><path style="opacity:1" fill="#c15a25" d="M 367.5,50.5 C 394.644,52.4886 418.978,61.6553 440.5,78C 411.667,114.167 382.833,150.333 354,186.5C 344.355,179.023 334.855,171.356 325.5,163.5C 348.414,130.855 358.414,94.5221 355.5,54.5C 355.5,53.1667 355.5,51.8333 355.5,50.5C 359.5,50.5 363.5,50.5 367.5,50.5 Z"/></g>
<g><path style="opacity:1" fill="#221e1f" d="M 130.5,82.5 C 150.303,81.1964 169.637,83.5297 188.5,89.5C 187.874,92.3149 186.54,94.8149 184.5,97C 166.852,98.4575 149.185,99.1241 131.5,99C 124.167,95 116.833,91 109.5,87C 116.613,85.4125 123.613,83.9125 130.5,82.5 Z"/></g>
<g><path style="opacity:1" fill="#c15a25" d="M 449.5,85.5 C 472.386,105.232 487.719,129.898 495.5,159.5C 453.29,164.689 417.79,183.023 389,214.5C 380.184,207.848 371.684,200.848 363.5,193.5C 391.81,157.193 420.477,121.193 449.5,85.5 Z"/></g>
<g><path style="opacity:1" fill="#c4cbc7" d="M 91.5,92.5 C 103.501,97.0007 114.834,102.834 125.5,110C 120.157,123.682 114.824,137.348 109.5,151C 92.0679,159.717 74.4013,167.883 56.5,175.5C 45.2263,170.53 34.2263,165.03 23.5,159C 38.4665,128.866 61.1331,106.699 91.5,92.5 Z"/></g>
<g><path style="opacity:1" fill="#c2c8c4" d="M 199.5,95.5 C 205.83,97.4968 211.83,100.33 217.5,104C 235.818,116.82 250.485,132.987 261.5,152.5C 261.167,152.833 260.833,153.167 260.5,153.5C 251.5,149.667 242.5,145.833 233.5,142C 220.833,128.667 208.167,115.333 195.5,102C 197.232,100.028 198.565,97.8614 199.5,95.5 Z"/></g>
<g><path style="opacity:1" fill="#c4cbc7" d="M 180.5,108.5 C 182.199,108.34 183.866,108.506 185.5,109C 198.017,122.016 210.35,135.183 222.5,148.5C 217.593,161.722 212.593,174.889 207.5,188C 191.829,189.834 176.163,191.668 160.5,193.5C 154.913,189.418 149.746,184.752 145,179.5C 136.782,170.952 128.949,162.119 121.5,153C 126.288,139.095 131.621,125.429 137.5,112C 152.029,111.345 166.363,110.178 180.5,108.5 Z"/></g>
<g><path style="opacity:1" fill="#d05c29" d="M 258.5,125.5 C 275.461,138.46 292.127,151.794 308.5,165.5C 302.132,172.869 295.132,179.536 287.5,185.5C 281.06,163.954 271.394,143.954 258.5,125.5 Z"/></g>
<g><path style="opacity:1" fill="#221e1f" d="M 232.5,154.5 C 244.933,159.548 257.266,164.882 269.5,170.5C 275.255,187.029 277.755,204.029 277,221.5C 266.667,225.833 256.333,230.167 246,234.5C 236.315,220.826 227.482,206.659 219.5,192C 223.541,179.377 227.874,166.877 232.5,154.5 Z"/></g>
<g><path style="opacity:1" fill="#221e1f" d="M 111.5,162.5 C 116.74,166.233 121.574,170.566 126,175.5C 133.833,184 141.667,192.5 149.5,201C 141.04,215.418 132.707,229.918 124.5,244.5C 123.5,244.833 122.5,245.167 121.5,245.5C 104.185,242.559 86.8521,239.725 69.5,237C 67.3419,221.403 65.3419,205.736 63.5,190C 63.8333,188.5 64.1667,187 64.5,185.5C 80.3809,178.059 96.0476,170.392 111.5,162.5 Z"/></g>
<g><path style="opacity:1" fill="#c4cbc7" d="M 18.5,170.5 C 29.4695,175.401 40.3028,180.734 51,186.5C 53.2492,203.657 55.4158,220.824 57.5,238C 53.0502,247.733 48.2169,257.233 43,266.5C 34.5839,262.473 26.0839,258.639 17.5,255C 9.29867,226.782 9.63201,198.615 18.5,170.5 Z"/></g>
<g><path style="opacity:1" fill="#d45e2a" d="M 487.5,172.5 C 491.167,172.5 494.833,172.5 498.5,172.5C 503.629,210.706 495.462,245.706 474,277.5C 473.261,278.574 472.261,279.241 471,279.5C 446.578,260.699 422.411,241.533 398.5,222C 422.309,195.093 451.975,178.593 487.5,172.5 Z"/></g>
<g><path style="opacity:1" fill="#c05a25" d="M 317.5,172.5 C 327.436,179.762 337.102,187.429 346.5,195.5C 331.861,214.607 316.861,233.44 301.5,252C 296.149,250.831 290.815,249.331 285.5,247.5C 286.823,240.536 287.99,233.536 289,226.5C 289.311,217.102 289.478,207.769 289.5,198.5C 300.436,191.564 309.769,182.897 317.5,172.5 Z"/></g>
<g><path style="opacity:1" fill="#c3cac6" d="M 231.5,234.5 C 223.833,235.167 216.167,235.833 208.5,236.5C 183.833,237.722 160.166,243.222 137.5,253C 136.056,253.781 134.723,253.614 133.5,252.5C 142.167,237.167 150.833,221.833 159.5,206.5C 174.697,203.424 190.03,201.091 205.5,199.5C 207.1,199.551 208.6,199.884 210,200.5C 217.391,211.717 224.557,223.051 231.5,234.5 Z"/></g>
<g><path style="opacity:1" fill="#c05a25" d="M 354.5,203.5 C 357.14,203.954 359.473,205.121 361.5,207C 368.481,212.315 375.147,217.982 381.5,224C 368.417,243.009 359.251,263.842 354,286.5C 340.916,275.712 327.082,266.046 312.5,257.5C 326.93,239.749 340.93,221.749 354.5,203.5 Z"/></g>
<g><path style="opacity:0.709" fill="#a94b21" d="M 511.5,204.5 C 511.5,209.5 511.5,214.5 511.5,219.5C 510.542,221.302 509.875,223.302 509.5,225.5C 508.861,224.903 508.528,224.07 508.5,223C 509.471,216.684 510.471,210.517 511.5,204.5 Z"/></g>
<g><path style="opacity:1" fill="#d45e2a" d="M 390.5,231.5 C 414.225,249.046 437.558,267.213 460.5,286C 461.899,287.062 462.899,288.395 463.5,290C 451.263,303.956 436.93,315.289 420.5,324C 415.833,324.333 411.167,324.667 406.5,325C 399.313,326.674 392.313,328.841 385.5,331.5C 380.983,318.805 374.15,307.471 365,297.5C 367.643,273.217 376.143,251.217 390.5,231.5 Z"/></g>
<g><path style="opacity:1" fill="#7c817e" d="M 231.5,234.5 C 232.043,234.56 232.376,234.893 232.5,235.5C 224.528,236.498 216.528,236.831 208.5,236.5C 216.167,235.833 223.833,235.167 231.5,234.5 Z"/></g>
<g><path style="opacity:1" fill="#b5bbb8" d="M 273.5,235.5 C 274.649,235.791 275.316,236.624 275.5,238C 275.057,239.825 274.723,241.658 274.5,243.5C 270.709,242.969 267.043,241.969 263.5,240.5C 266.894,238.803 270.227,237.136 273.5,235.5 Z"/></g>
<g><path style="opacity:1" fill="#c3cac6" d="M 65.5,248.5 C 84.9438,251.185 104.277,254.518 123.5,258.5C 105.457,269.029 88.957,281.695 74,296.5C 70.643,300.356 67.4763,304.356 64.5,308.5C 60.5029,297.51 56.5029,286.51 52.5,275.5C 56.5745,266.352 60.9078,257.352 65.5,248.5 Z"/></g>
<g><path style="opacity:1" fill="#7b5e52" d="M 205.5,247.5 C 229.983,246.85 253.983,249.85 277.5,256.5C 277.5,316.167 277.5,375.833 277.5,435.5C 242.712,445.089 207.712,445.922 172.5,438C 164.356,435.953 156.522,433.119 149,429.5C 148.333,423.167 148.333,416.833 149,410.5C 153.548,396.153 153.548,381.819 149,367.5C 148.333,332.167 148.333,296.833 149,261.5C 156.797,257.678 164.964,254.845 173.5,253C 184.223,250.704 194.889,248.871 205.5,247.5 Z"/></g>
<g><path style="opacity:1" fill="#b8a492" d="M 288.5,261.5 C 299.919,264.876 310.585,269.876 320.5,276.5C 321.833,322.833 321.833,369.167 320.5,415.5C 310.377,421.652 299.711,426.652 288.5,430.5C 288.5,374.167 288.5,317.833 288.5,261.5 Z"/></g>
<g><path style="opacity:1" fill="#514941" d="M 136.5,266.5 C 137.663,292.33 137.83,318.33 137,344.5C 136.283,343.956 135.783,343.289 135.5,342.5C 136.498,317.339 136.831,292.005 136.5,266.5 Z"/></g>
<g><path style="opacity:1" fill="#b8a493" d="M 136.5,266.5 C 136.831,292.005 136.498,317.339 135.5,342.5C 127.073,332.032 116.573,324.366 104,319.5C 103.333,308.167 103.333,296.833 104,285.5C 113.985,277.756 124.819,271.423 136.5,266.5 Z"/></g>
<g><path style="opacity:1" fill="#221e1f" d="M 23.5,270.5 C 29.7522,272.959 35.7522,275.959 41.5,279.5C 45.7332,290.031 49.2332,300.698 52,311.5C 39.9158,299.59 30.4158,285.924 23.5,270.5 Z"/></g>
<g><path style="opacity:1" fill="#7a5d52" d="M 333.5,285.5 C 348.548,295.381 360.714,308.048 370,323.5C 372.521,327.895 374.354,332.562 375.5,337.5C 357.164,353.17 346.997,373.17 345,397.5C 341.701,400.978 338.034,403.978 334,406.5C 333.5,366.168 333.333,325.835 333.5,285.5 Z"/></g>
<g><path style="opacity:1" fill="#75594e" d="M 91.5,295.5 C 92.4912,302.313 92.8245,309.313 92.5,316.5C 86.791,315.779 81.1244,314.779 75.5,313.5C 80.4844,307.183 85.8177,301.183 91.5,295.5 Z"/></g>
<g><path style="opacity:1" fill="#c2c9c5" d="M 68.5,326.5 C 84.2512,325.092 98.5846,328.759 111.5,337.5C 109.727,340.06 107.727,342.393 105.5,344.5C 103.572,342.422 101.405,341.755 99,342.5C 97.0863,344.748 95.5863,347.248 94.5,350C 95.8677,351.873 97.5343,353.54 99.5,355C 97.7026,359.43 95.5359,363.597 93,367.5C 91.2341,366.767 89.4008,366.433 87.5,366.5C 86.9421,369.344 86.2755,372.178 85.5,375C 86.3833,377.906 88.3833,379.073 91.5,378.5C 91.5,383.833 91.5,389.167 91.5,394.5C 89.1944,394.993 86.861,395.326 84.5,395.5C 85.0436,399.673 86.2103,403.673 88,407.5C 89.6995,406.594 91.5328,406.261 93.5,406.5C 94.5621,411.686 96.2288,416.686 98.5,421.5C 96.8744,422.99 95.2077,424.49 93.5,426C 95.5,428.667 97.5,431.333 99.5,434C 101.256,434.14 102.922,433.64 104.5,432.5C 107.215,435.214 109.549,438.214 111.5,441.5C 95.894,452.101 78.894,454.934 60.5,450C 54.2755,448.221 48.6088,445.388 43.5,441.5C 46.1421,437.691 48.9754,434.024 52,430.5C 53.7448,431.956 55.5781,433.289 57.5,434.5C 60.6848,431.789 62.5181,428.456 63,424.5C 60.8416,423.174 59.0082,421.507 57.5,419.5C 59.4488,414.99 60.7821,410.323 61.5,405.5C 64.5176,405.704 67.5176,406.037 70.5,406.5C 70.7678,403.26 71.4345,400.094 72.5,397C 69.994,394.78 66.994,393.614 63.5,393.5C 63.5,388.833 63.5,384.167 63.5,379.5C 66.4824,379.037 69.4824,378.704 72.5,378.5C 71.9375,374.875 70.9375,371.375 69.5,368C 66.4686,367.505 63.4686,367.671 60.5,368.5C 59.8684,364.439 58.535,360.606 56.5,357C 58.2895,354.836 60.4562,353.002 63,351.5C 62.011,347.867 60.1776,344.534 57.5,341.5C 55.4835,342.174 53.8168,343.341 52.5,345C 51.5,345.667 50.5,345.667 49.5,345C 47.3799,342.591 45.3799,340.091 43.5,337.5C 45.7308,335.114 48.3975,333.281 51.5,332C 57.1368,329.682 62.8035,327.849 68.5,326.5 Z"/></g>
<g><path style="opacity:1" fill="#030202" d="M 207.5,339.5 C 210.962,340.482 214.629,340.815 218.5,340.5C 218.5,336.833 218.5,333.167 218.5,329.5C 222.167,329.5 225.833,329.5 229.5,329.5C 229.5,333.167 229.5,336.833 229.5,340.5C 232.167,340.5 234.833,340.5 237.5,340.5C 237.5,336.5 237.5,332.5 237.5,328.5C 241.5,328.5 245.5,328.5 249.5,328.5C 249.5,332.5 249.5,336.5 249.5,340.5C 252.5,340.5 255.5,340.5 258.5,340.5C 258.5,344.167 258.5,347.833 258.5,351.5C 255.5,351.5 252.5,351.5 249.5,351.5C 249.5,355.167 249.5,358.833 249.5,362.5C 245.5,362.5 241.5,362.5 237.5,362.5C 237.5,358.833 237.5,355.167 237.5,351.5C 234.833,351.5 232.167,351.5 229.5,351.5C 229.5,355.167 229.5,358.833 229.5,362.5C 225.833,362.5 222.167,362.5 218.5,362.5C 218.5,358.833 218.5,355.167 218.5,351.5C 214.833,351.5 211.167,351.5 207.5,351.5C 207.5,355.167 207.5,358.833 207.5,362.5C 203.5,362.5 199.5,362.5 195.5,362.5C 195.5,358.833 195.5,355.167 195.5,351.5C 192.167,351.5 188.833,351.5 185.5,351.5C 185.5,355.167 185.5,358.833 185.5,362.5C 181.5,362.5 177.5,362.5 173.5,362.5C 173.5,358.833 173.5,355.167 173.5,351.5C 170.833,351.5 168.167,351.5 165.5,351.5C 165.5,347.833 165.5,344.167 165.5,340.5C 168.167,340.5 170.833,340.5 173.5,340.5C 173.5,336.5 173.5,332.5 173.5,328.5C 177.5,328.5 181.5,328.5 185.5,328.5C 185.5,332.5 185.5,336.5 185.5,340.5C 188.833,340.5 192.167,340.5 195.5,340.5C 195.5,336.5 195.5,332.5 195.5,328.5C 199.5,328.5 203.5,328.5 207.5,328.5C 207.5,332.167 207.5,335.833 207.5,339.5 Z"/></g>
<g><path style="opacity:1" fill="#40312a" d="M 229.5,329.5 C 225.833,329.5 222.167,329.5 218.5,329.5C 218.5,333.167 218.5,336.833 218.5,340.5C 214.629,340.815 210.962,340.482 207.5,339.5C 210.833,339.5 214.167,339.5 217.5,339.5C 217.5,335.833 217.5,332.167 217.5,328.5C 221.702,328.183 225.702,328.517 229.5,329.5 Z"/></g>
<g><path style="opacity:1" fill="#4b6411" d="M 411.5,335.5 C 423.202,334.933 434.535,336.6 445.5,340.5C 444.191,357.371 445.691,374.038 450,390.5C 451.083,406.437 443.583,415.604 427.5,418C 414.579,420.689 403.412,417.523 394,408.5C 391.044,404.518 389.544,400.018 389.5,395C 392.86,376.98 394.86,358.813 395.5,340.5C 400.858,338.501 406.191,336.834 411.5,335.5 Z"/></g>
<g><path style="opacity:1" fill="#d1c3bd" d="M 32.5,345.5 C 35.7441,347.071 38.4108,349.405 40.5,352.5C 39.0186,353.48 37.6853,354.647 36.5,356C 38.5431,359.253 40.7098,362.42 43,365.5C 44.0793,363.606 45.4126,363.273 47,364.5C 48.4114,366.65 49.2447,368.984 49.5,371.5C 47.5165,371.383 45.8498,372.05 44.5,373.5C 46.0267,376.66 46.6933,379.993 46.5,383.5C 48.2624,383.643 49.9291,383.309 51.5,382.5C 52.48,385.086 52.8134,387.753 52.5,390.5C 50.6693,389.948 49.0026,389.948 47.5,390.5C 46.5102,394.105 45.8436,397.772 45.5,401.5C 47.1667,401.5 48.8333,401.5 50.5,401.5C 50.2588,405.803 49.0921,409.803 47,413.5C 45.6626,412.235 44.1626,411.735 42.5,412C 40.5,414.667 38.5,417.333 36.5,420C 38.2077,421.51 39.8744,423.01 41.5,424.5C 39.5472,428.12 36.8805,431.12 33.5,433.5C 20.8883,421.263 14.5549,406.263 14.5,388.5C 15.3095,371.894 21.3095,357.561 32.5,345.5 Z"/></g>
<g><path style="opacity:1" fill="#d0c2bd" d="M 120.5,345.5 C 125.15,347.985 128.65,351.652 131,356.5C 143.623,378.493 143.623,400.493 131,422.5C 128.296,426.58 125.129,430.247 121.5,433.5C 118.644,431.478 116.311,428.978 114.5,426C 116.241,424.38 118.075,422.88 120,421.5C 119.518,417.544 117.685,414.211 114.5,411.5C 112.5,412.833 110.5,414.167 108.5,415.5C 107.016,411.905 105.683,408.238 104.5,404.5C 106.792,402.742 109.459,401.576 112.5,401C 111.46,397.6 110.794,394.1 110.5,390.5C 107.794,390.575 105.127,390.908 102.5,391.5C 102.18,388.102 102.513,384.768 103.5,381.5C 105.747,382.374 108.08,382.708 110.5,382.5C 111.008,378.803 111.674,375.136 112.5,371.5C 108.27,372.169 106.437,370.502 107,366.5C 107.36,364.579 108.194,362.912 109.5,361.5C 111.497,362.747 113.497,363.581 115.5,364C 117.694,361.305 119.694,358.472 121.5,355.5C 119.321,354.243 117.321,352.743 115.5,351C 117.373,349.296 119.04,347.463 120.5,345.5 Z"/></g>
<g><path style="opacity:1" fill="#5e7015" d="M 456.5,347.5 C 482.36,368.281 489.194,394.281 477,425.5C 461.521,453.156 438.021,464.656 406.5,460C 371.3,448.765 355.133,424.599 358,387.5C 361.136,371.205 369.303,358.205 382.5,348.5C 382.833,349.833 383.167,351.167 383.5,352.5C 381.825,366.881 379.825,381.214 377.5,395.5C 380.53,415.031 391.863,426.531 411.5,430C 426.781,432.097 440.448,428.431 452.5,419C 458.714,412.405 462.047,404.571 462.5,395.5C 459.192,379.653 457.192,363.653 456.5,347.5 Z"/></g>
</svg>
